<svg xmlns="http://www.w3.org/2000/svg" fill="none" viewBox="0 0 53 45"><path fill="currentColor" d="m29.568 0-.96 8.64 8.736-2.448.768 5.904-7.968.576 5.232 6.96-5.328 2.832L26.4 15.12l-3.216 7.296-5.52-2.784 5.184-6.96-7.92-.624.912-5.856 8.544 2.448-.96-8.64h6.144ZM14.64 21.648l-.96 8.64 8.736-2.448.768 5.904-7.968.576 5.232 6.96-5.328 2.832-3.648-7.344-3.216 7.296-5.52-2.784 5.184-6.96L0 33.696l.912-5.856 8.544 2.448-.96-8.64h6.144Zm29.712 0-.96 8.64 8.736-2.448.768 5.904-7.968.576 5.232 6.96-5.328 2.832-3.648-7.344-3.216 7.296-5.52-2.784 5.184-6.96-7.92-.624.912-5.856 8.544 2.448-.96-8.64h6.144Z"/></svg>