<svg xmlns="http://www.w3.org/2000/svg" fill="none" role="presentation" viewBox="0 0 40 34"><path fill="currentColor" d="m21.852.64-.72 6.912 6.912-1.944.504 3.312-6.624.54 4.284 5.688-3.096 1.692-3.06-6.3-2.772 6.3-3.204-1.692 4.212-5.688-6.552-.54.504-3.312 6.84 1.944L18.324.64h3.528ZM10.656 16.876l-.72 6.912 6.912-1.944.504 3.312-6.624.54 4.284 5.688-3.096 1.692-3.06-6.3-2.772 6.3-3.204-1.692 4.212-5.688-6.552-.54.504-3.312 6.84 1.944-.756-6.912h3.528Zm22.284 0-.72 6.912 6.912-1.944.504 3.312-6.624.54 4.284 5.688-3.096 1.692-3.06-6.3-2.772 6.3-3.204-1.692 4.212-5.688-6.552-.54.504-3.312 6.84 1.944-.756-6.912h3.528Z"/></svg>