<svg xmlns="http://www.w3.org/2000/svg" fill="none" viewBox="0 0 40 33"><path fill="currentColor" d="M21.059 0a1 1 0 0 1 .994 1.11l-.433 3.897a1 1 0 0 0 1.263 1.073l4.013-1.124a1 1 0 0 1 1.261.834l.29 2.232a1 1 0 0 1-.92 1.126l-3.09.224a1 1 0 0 0-.727 1.598l2.12 2.82a1 1 0 0 1-.33 1.483l-2.056 1.093a1 1 0 0 1-1.365-.439l-1.33-2.675a1 1 0 0 0-1.81.041l-1.126 2.555a1 1 0 0 1-1.365.49L14.31 15.26a1 1 0 0 1-.351-1.49l2.096-2.814a1 1 0 0 0-.724-1.594l-3.06-.241a1 1 0 0 1-.909-1.151l.344-2.207a1 1 0 0 1 1.263-.807l3.885 1.113a1 1 0 0 0 1.27-1.072L17.69 1.11A1 1 0 0 1 18.685 0h2.374ZM9.863 16.236a1 1 0 0 1 .994 1.11l-.433 3.897a1 1 0 0 0 1.263 1.073l4.013-1.124a1 1 0 0 1 1.261.834l.29 2.232a1 1 0 0 1-.92 1.126l-3.09.224a1 1 0 0 0-.727 1.598l2.12 2.82a1 1 0 0 1-.33 1.483l-2.056 1.093a1 1 0 0 1-1.365-.439l-1.33-2.675a1 1 0 0 0-1.81.041l-1.126 2.555a1 1 0 0 1-1.365.49l-2.138-1.078a1 1 0 0 1-.351-1.49l2.095-2.814a1 1 0 0 0-.723-1.594l-3.06-.241a1 1 0 0 1-.909-1.151L.51 22a1 1 0 0 1 1.263-.808l3.885 1.113a1 1 0 0 0 1.27-1.072l-.433-3.887a1 1 0 0 1 .994-1.11h2.374Zm22.284 0a1 1 0 0 1 .994 1.11l-.433 3.897a1 1 0 0 0 1.263 1.073l4.013-1.124a1 1 0 0 1 1.261.834l.29 2.232a1 1 0 0 1-.92 1.126l-3.09.224a1 1 0 0 0-.727 1.598l2.12 2.82a1 1 0 0 1-.33 1.483l-2.056 1.093a1 1 0 0 1-1.365-.439l-1.33-2.675a1 1 0 0 0-1.81.041l-1.126 2.555a1 1 0 0 1-1.366.49l-2.137-1.078a1 1 0 0 1-.351-1.49l2.095-2.814a1 1 0 0 0-.723-1.594l-3.06-.241a1 1 0 0 1-.909-1.151L22.794 22a1 1 0 0 1 1.263-.808l3.885 1.113a1 1 0 0 0 1.27-1.072l-.433-3.887a1 1 0 0 1 .994-1.11h2.374Z"/></svg>