<svg xmlns="http://www.w3.org/2000/svg" fill="none" viewBox="0 0 38 30"><path fill="currentColor" fill-rule="evenodd" d="M12 26a1 1 0 0 1-1-1V1a1 1 0 0 1 1-1h4a1 1 0 0 1 1 1v24a1 1 0 0 1-1 1h-4Zm10 0a1 1 0 0 1-1-1V1a1 1 0 0 1 1-1h4a1 1 0 0 1 1 1v24a1 1 0 0 1-1 1h-4Z" clip-rule="evenodd"/><path fill="currentColor" fill-rule="evenodd" d="M37 19a1 1 0 0 1-1 1H2a1 1 0 0 1-1-1v-1a1 1 0 0 1 1-1h34a1 1 0 0 1 1 1v1ZM27 3H11V1h16v2Zm0 6H11V7h16v2Z" clip-rule="evenodd"/><path fill="currentColor" fill-rule="evenodd" d="M8.428 12.569C10.008 9.76 11 5.849 11 1.5h1c0 4.488-1.022 8.576-2.7 11.559C7.63 16.026 5.246 18 2.5 18v-1c2.224 0 4.34-1.608 5.928-4.431Zm21.144 0C27.992 9.76 27 5.849 27 1.5h-1c0 4.488 1.022 8.576 2.7 11.559C30.37 16.026 32.754 18 35.5 18v-1c-2.224 0-4.34-1.608-5.928-4.431ZM.25 25.25A.75.75 0 0 1 1 24.5h36a.75.75 0 0 1 0 1.5H1a.75.75 0 0 1-.75-.75Zm6 4A.75.75 0 0 1 7 28.5h24a.75.75 0 0 1 0 1.5H7a.75.75 0 0 1-.75-.75Z" clip-rule="evenodd"/></svg>