<svg xmlns="http://www.w3.org/2000/svg" fill="none" viewBox="0 0 30 27"><path fill="currentColor" fill-rule="evenodd" d="M28.154 11.78a1 1 0 0 0 .772-1.552L26.9 7.19c-.304-.456-.962-.516-1.51-.516a1.5 1.5 0 0 1-1.412-2.006c.198-.554.417-1.236.09-1.725L22.405.444a1 1 0 0 0-1.32-.317L.703 11.54c-.928.52-.512 1.935.548 1.871l17.841-1.081c.478-.03.852-.403 1.042-.843a3 3 0 0 1 5.348-.323c.241.413.658.739 1.136.71l1.535-.093Zm-14.763-1.105a1.5 1.5 0 1 0 0-3 1.5 1.5 0 0 0 0 3ZM.934 15.606l18.856-1.257c.361-.024.698.159.95.418a2.996 2.996 0 0 0 4.56-.304c.216-.29.526-.517.887-.54l2.46-.165a1 1 0 0 1 1.054 1.15l-.166 1.08c-.066.431-.412.754-.813.924a3 3 0 0 0-.775 5.049c.331.282.563.693.496 1.123l-.412 2.678a1 1 0 0 1-1.062.845l-7.259-.537c-.48-.036-.842-.442-1.14-.82a1.497 1.497 0 0 0-2.21-.164c-.35.33-.767.679-1.247.643l-13.394-.992a1 1 0 0 1-.92-.887l-.025-.228c-.039-.349.118-.684.352-.945a2.996 2.996 0 0 0-.494-4.445c-.286-.204-.512-.496-.551-.845l-.075-.673a1 1 0 0 1 .928-1.108Zm9.957 7.07a3 3 0 1 0 0-6 3 3 0 0 0 0 6Zm12-2.5a1.5 1.5 0 1 1-3 0 1.5 1.5 0 0 1 3 0Z" clip-rule="evenodd"/></svg>