<svg width="30" height="30" viewBox="0 0 30 30" fill="none" xmlns="http://www.w3.org/2000/svg">
<path fill-rule="evenodd" clip-rule="evenodd" d="M6 0C2.68629 0 0 2.68629 0 6V24C0 27.3137 2.68629 30 6 30H24C27.3137 30 30 27.3137 30 24V6C30 2.68629 27.3137 0 24 0H6ZM8.50537 7.51881C7.9562 6.96964 7.06581 6.96964 6.51663 7.51881C5.96746 8.06799 5.96746 8.95838 6.51663 9.50755L10.3879 13.3788L6.50334 17.2633C5.95417 17.8125 5.95417 18.7029 6.50334 19.2521C7.05252 19.8012 7.94291 19.8012 8.49208 19.2521L13.243 14.5012C13.2758 14.4683 13.3067 14.4342 13.3357 14.3991C13.3461 14.3892 13.3565 14.3792 13.3667 14.3689C13.9159 13.8197 13.9159 12.9293 13.3667 12.3802L8.50537 7.51881ZM14.6094 21.9531C14.6094 21.1765 15.239 20.5469 16.0156 20.5469H22.8906C23.6673 20.5469 24.2969 21.1765 24.2969 21.9531C24.2969 22.7298 23.6673 23.3594 22.8906 23.3594H16.0156C15.239 23.3594 14.6094 22.7298 14.6094 21.9531Z" fill="white"/>
</svg>
