<svg xmlns="http://www.w3.org/2000/svg" role="presentation" viewBox="0 0 24 24"><path fill="currentColor" fill-rule="evenodd" d="M12.355 0C5.523 0 0 5.5 0 12.304c0 5.44 3.539 10.043 8.448 11.673.613.122.838-.265.838-.59 0-.286-.02-1.264-.02-2.283-3.437.734-4.152-1.466-4.152-1.466-.553-1.426-1.371-1.793-1.371-1.793-1.125-.754.082-.754.082-.754 1.248.082 1.902 1.263 1.902 1.263 1.105 1.874 2.884 1.345 3.6 1.019.102-.795.43-1.345.778-1.65-2.741-.285-5.625-1.345-5.625-6.07 0-1.345.49-2.445 1.268-3.3-.123-.306-.553-1.57.123-3.26 0 0 1.043-.326 3.395 1.263a12.007 12.007 0 0 1 3.089-.408c1.043 0 2.106.143 3.088.408 2.353-1.59 3.396-1.263 3.396-1.263.675 1.69.245 2.954.122 3.26.798.855 1.269 1.955 1.269 3.3 0 4.725-2.884 5.764-5.646 6.07.45.387.839 1.12.839 2.281 0 1.65-.02 2.975-.02 3.382 0 .326.224.713.838.59 4.909-1.63 8.448-6.233 8.448-11.672C24.709 5.5 19.166 0 12.355 0Z" clip-rule="evenodd"/></svg>