<svg xmlns="http://www.w3.org/2000/svg" fill="none" viewBox="0 0 24 24"><path fill="currentColor" d="M10.8 18h2.4v-7.2h-2.4V18ZM12 8.4c.34 0 .625-.115.855-.345.23-.23.345-.515.345-.855 0-.34-.115-.625-.345-.855A1.161 1.161 0 0 0 12 6c-.34 0-.625.115-.855.345-.23.23-.345.515-.345.855 0 .34.115.625.345.855.23.23.515.345.855.345ZM12 24c-1.66 0-3.22-.315-4.68-.945a12.118 12.118 0 0 1-3.81-2.565 12.118 12.118 0 0 1-2.565-3.81C.315 15.22 0 13.66 0 12c0-1.66.315-3.22.945-4.68.63-1.46 1.485-2.73 2.565-3.81A12.118 12.118 0 0 1 7.32.945C8.78.315 10.34 0 12 0c1.66 0 3.22.315 4.68.945 1.46.63 2.73 1.485 3.81 2.565a12.118 12.118 0 0 1 2.565 3.81c.63 1.46.945 3.02.945 4.68 0 1.66-.315 3.22-.945 4.68a12.118 12.118 0 0 1-2.565 3.81 12.118 12.118 0 0 1-3.81 2.565c-1.46.63-3.02.945-4.68.945Zm0-2.4c2.68 0 4.95-.93 6.81-2.79 1.86-1.86 2.79-4.13 2.79-6.81 0-2.68-.93-4.95-2.79-6.81C16.95 3.33 14.68 2.4 12 2.4c-2.68 0-4.95.93-6.81 2.79C3.33 7.05 2.4 9.32 2.4 12c0 2.68.93 4.95 2.79 6.81C7.05 20.67 9.32 21.6 12 21.6Z"/></svg>