<svg xmlns="http://www.w3.org/2000/svg" fill="none" viewBox="0 0 28 30"><path fill="currentColor" fill-rule="evenodd" d="M9.308 1.908c-2.385-.27-5.033-.197-8.204.248A.75.75 0 1 1 .896.671C4.157.212 6.936.13 9.476.417c1.345.152 2.264.558 2.891 1.018.3.22.524.446.688.646.246-.06.557-.11.91-.11a.75.75 0 0 1 0 1.5 2.348 2.348 0 0 0-.873.172l-.004.002h.002l.002-.001v-.001h.001" clip-rule="evenodd"/><path fill="currentColor" fill-rule="evenodd" d="M1.16 2.148A.75.75 0 1 1 .865.676c.485-.088.94.025 1.295.35.311.286.481.676.59 1.02.157.5.254 1.16.347 1.792.031.212.062.422.094.62.14.861.321 1.632.654 2.202.306.524.731.87 1.452.942.17.017.339.036.508.054.84.09 1.674.18 2.463.14.94-.046 1.659-.271 2.142-.772.566-.588.955-1.609 1.214-2.58.119-.446.202-.848.265-1.152a5.78 5.78 0 0 0 .01-.042c.029-.143.06-.288.087-.39v-.004a1.1 1.1 0 0 1 .096-.245.762.762 0 0 1 .472-.37.756.756 0 0 1 .856.358.75.75 0 0 1 .003.74l-.046.217-.01.046c-.063.303-.154.741-.284 1.23-.265.992-.73 2.348-1.583 3.233-.87.9-2.046 1.175-3.149 1.23-.918.045-1.892-.06-2.73-.151l-.465-.05c-1.265-.127-2.084-.8-2.596-1.677-.485-.83-.697-1.844-.84-2.717-.044-.274-.082-.53-.117-.77-.085-.58-.155-1.057-.274-1.433-.068-.215-.129-.312-.159-.35Zm.023 0-.001-.001Zm12.255 1.089Z" clip-rule="evenodd"/><path fill="currentColor" fill-rule="evenodd" d="M18.622 1.908c2.384-.27 5.033-.197 8.203.248a.75.75 0 1 0 .21-1.485C23.772.212 20.993.13 18.452.417c-1.345.152-2.264.558-2.89 1.018-.301.22-.524.446-.689.646a3.838 3.838 0 0 0-.91-.11.75.75 0 0 0 0 1.5 2.349 2.349 0 0 1 .874.172l.003.002h-.001l-.002-.001-.001-.001" clip-rule="evenodd"/><path fill="currentColor" fill-rule="evenodd" d="m26.77 2.148.026.004a.75.75 0 1 0 .268-1.476c-.484-.088-.94.025-1.294.35-.312.286-.482.676-.59 1.02-.157.5-.254 1.16-.347 1.792-.031.212-.062.422-.095.62-.14.861-.32 1.632-.654 2.202-.306.524-.73.87-1.451.942-.17.017-.34.036-.509.054-.839.09-1.673.18-2.462.14-.94-.046-1.66-.271-2.142-.772-.567-.588-.955-1.609-1.214-2.58-.12-.446-.203-.848-.266-1.152l-.008-.042a7.605 7.605 0 0 0-.088-.39l-.001-.004c-.01-.035-.039-.143-.096-.245a.762.762 0 0 0-1.09-.268.766.766 0 0 0-.237.256.75.75 0 0 0-.003.74l.046.217.01.046c.062.303.153.741.284 1.23.264.992.729 2.348 1.583 3.233.869.9 2.046 1.175 3.148 1.23.918.045 1.893-.06 2.73-.151l.466-.05c1.264-.127 2.084-.8 2.596-1.677.484-.83.697-1.844.839-2.717.045-.274.082-.53.117-.77.086-.58.156-1.057.275-1.433.068-.215.128-.312.158-.35Zm-.023 0 .001-.001ZM14.492 3.236Zm-1.296 9.224a.75.75 0 0 1 .435.967c-.241.636-1.078 1.92-2.66 2.365-.439.124-.84.198-1.189.26-.023.005-.046.01-.07.013-.326.059-.588.105-.834.174-.47.13-.862.334-1.278.89a.75.75 0 1 1-1.2-.9c.64-.853 1.328-1.227 2.076-1.435.318-.089.648-.148.958-.203l.084-.015c.344-.061.683-.125 1.048-.228.992-.279 1.535-1.118 1.662-1.453a.75.75 0 0 1 .968-.435Zm1.729 0a.75.75 0 0 0-.435.967c.24.636 1.078 1.92 2.659 2.365.44.124.84.198 1.19.26a9.136 9.136 0 0 1 .904.186c.47.132.861.336 1.278.89a.75.75 0 1 0 1.2-.9c-.64-.852-1.329-1.226-2.076-1.434a10.39 10.39 0 0 0-.958-.203l-.084-.015a10.758 10.758 0 0 1-1.048-.228c-.992-.279-1.535-1.118-1.663-1.453a.75.75 0 0 0-.967-.435Z" clip-rule="evenodd"/><path fill="currentColor" fill-rule="evenodd" d="M24.253 11.934a.75.75 0 0 1 1.494.132c-.365 4.127-.548 5.84-.64 6.698l-.003.03a14.49 14.49 0 0 0-.076.825c-.007.154-.007.307-.007.582v.044c0 .401-.155.796-.333 1.134a7.35 7.35 0 0 1-.732 1.086c-.58.733-1.35 1.526-2.133 2.266-1.557 1.47-3.265 2.823-3.819 3.175-.13.083-.281.182-.445.29-.395.26-.866.572-1.329.83-.648.363-1.443.724-2.222.724h-.016c-.779 0-1.575-.361-2.222-.724-.463-.258-.934-.57-1.33-.83a32.08 32.08 0 0 0-.444-.29c-.554-.352-2.262-1.704-3.819-3.175-.783-.74-1.553-1.533-2.133-2.266a7.356 7.356 0 0 1-.732-1.086c-.178-.338-.333-.733-.333-1.134V20.2c0-.275 0-.428-.007-.582-.009-.194-.03-.387-.076-.825l-.004-.03c-.091-.858-.274-2.57-.639-6.696v-.002a.75.75 0 1 1 1.494-.132c.365 4.125.984 6.684 2.071 8.2 1.017 1.418 2.532 2.03 5.13 1.95h.022c.023 0 .158-.024.405-.248.23-.208.47-.51.696-.854.221-.339.41-.69.542-.976l.021-.392a.75.75 0 0 1 .749-.708h1.234a.75.75 0 0 1 .749.708l.02.392c.133.286.322.637.543.976a4.5 4.5 0 0 0 .696.854c.247.224.382.248.405.248h.02c2.873.08 4.364-.544 5.31-1.935.503-.739.89-1.748 1.195-3.117.304-1.367.517-3.046.698-5.098Z" clip-rule="evenodd"/></svg>