<svg xmlns="http://www.w3.org/2000/svg" viewBox="0 0 32 32" fill="none">
  <path fill-rule="evenodd" d="M2 32c1.105 0 2-1.343 2-3s-.895-3-2-3-2 1.343-2 3 .895 3 2 3Zm3-3c0 1.152-.289 2.204-.764 3H30c1.105 0 2-1.343 2-3s-.895-3-2-3H4.236c.475.796.764 1.848.764 3Zm-1.49-4h2.98c.317-.53.51-1.232.51-2 0-1.657-.895-3-2-3s-2 1.343-2 3c0 .768.193 1.47.51 2Zm24.98 0c.317-.53.51-1.232.51-2 0-1.657-.895-3-2-3H7.236c.475.796.764 1.848.764 3 0 .718-.112 1.398-.312 2h20.803ZM22 14c0-5.331-2.317-10.12-6-13.417A17.955 17.955 0 0 0 10 14c0 1.983.962 3.74 2.444 4.833A3.983 3.983 0 0 1 12 17a8.99 8.99 0 0 1 4-7.484A8.991 8.991 0 0 1 20 17c0 .66-.16 1.284-.444 1.833A5.991 5.991 0 0 0 22 14Z"/>
  <path fill-rule="evenodd" d="M16 11.803a5.998 5.998 0 0 1 3 5.192V17c0 .768-.289 1.47-.764 2h-4.472A2.989 2.989 0 0 1 13 17c0-2.22 1.207-4.16 3-5.197Z"/>
      <style>
        path { fill: #000; }
        @media (prefers-color-scheme: dark) {
            path { fill: #FFF; }
        }
    </style>
</svg>