<svg xmlns="http://www.w3.org/2000/svg" fill="none" viewBox="0 0 128 128">
    <path fill-rule="evenodd" d="M94 56C94 32.83 82.061 12.45 64 .674 45.939 12.45 34 32.83 34 56c0 11.645 6.635 21.74 16.331 26.712a17.93 17.93 0 0 1-4.326-12.126A36.85 36.85 0 0 1 46 70c0-13.325 7.24-24.96 18-31.184C74.76 45.041 82 56.675 82 70c0 .196-.002.39-.005.586a17.93 17.93 0 0 1-4.327 12.126C87.366 77.741 94 67.645 94 56ZM26 98a9 9 0 0 1-9 9 9 9 0 1 1 9-9ZM9 128a9 9 0 0 0 9-9 9 9 0 0 0-9-9 9 9 0 0 0-9 9 9 9 0 0 0 9 9Zm12-9a11.97 11.97 0 0 1-4.063 9H119a9 9 0 0 0 9-9 9 9 0 0 0-9-9H16.937A11.971 11.971 0 0 1 21 119Zm8-21a11.97 11.97 0 0 1-4.063 9H110a9 9 0 0 0 9-9 9 9 0 0 0-9-9H24.937A11.97 11.97 0 0 1 29 98Zm50-27c0-10.072-6.204-18.695-15-22.255C55.205 52.305 49 60.928 49 71c0 8.284 6.716 15 15 15 8.284 0 15-6.716 15-15Z"/>
    <style>
        path { fill: #000; }
        @media (prefers-color-scheme: dark) {
            path { fill: #FFF; }
        }
    </style>
</svg>