<svg xmlns="http://www.w3.org/2000/svg" fill="none" viewBox="0 0 128 128">
    <path d="M87.725 0c-2.198 3.178-4.185 7.383-5.007 11.314-.493 2.36.644 4.854 2.484 5.486 2.761.948 4.17-1.07 4.664-3.428.74-3.54-3.62-6.295-2.14-13.372ZM64.982 4.305c1.619.89 3.428 2.671 5.16 5.562 2.091 3.488 4.074 8.037 5.849 12.533 2.762 6.038 4.089 12.832 7.453 18.057 1.163 1.334 1.99.876 2.829-.114l.879-8.039 3.058 3.81c1.758 1.185 2.872-.873 3.478-2.21.527-1.606.762-3.117.917-4.61 2.67 4.493 5.021 10.681 6.728 17.03 2.111 7.853 3.287 15.886 3.287 20.723 0 10.78-4.345 19.22-11.39 25.067-7.046 5.846-16.846 9.067-27.75 9.067-10.906 0-20.705-3.221-27.751-9.067-7.046-5.846-11.39-14.287-11.39-25.067 0-9.237 5.699-24.798 13.072-36 .758 2.666 1.682 5.905 1.682 5.905.235.69 1.173 1.028 1.796.648l4.816-2.858 1.95 5.867c.27.779 1.444 1.044 2.026.457 4.539-6.5 6.754-14.237 8.982-21.41 1.575-5.077 2.995-10.203 4.32-15.351ZM46.788 11.2c1.48 7.077-2.88 9.833-2.14 13.372.492 2.358 1.902 4.414 4.663 3.466 1.84-.632 2.977-3.127 2.484-5.486-.822-3.931-2.809-8.174-5.007-11.352Zm59.476 15.848c.986 5.055-1.946 7.034-1.453 9.561.329 1.685 1.294 3.116 3.134 2.439 1.227-.452 1.973-2.201 1.644-3.886-.548-2.809-1.86-5.844-3.325-8.114Zm-83.71 4.876c-1.466 2.27-2.777 5.306-3.325 8.114-.329 1.685.416 3.434 1.643 3.886 1.84.677 2.768-.753 3.096-2.438.494-2.528-2.4-4.507-1.414-9.562Zm40.517 14.134c-1.462 5.45-2.45 10.174-5.045 15.123-.794 1.494-1.617 2.269-2.332 2.858-1.758-1.864-3.538-3.552-4.893-5.715-.12-.835-1.274-1.31-1.95-.8-5.388 4.028-9.058 12.877-9.058 22.934 0 2.183 1.148 4.134 2.828 5.752 1.68 1.619 3.923 2.953 6.46 4.076 5.074 2.248 11.29 3.581 16.398 3.581 5.108 0 11.324-1.333 16.398-3.58 2.537-1.124 4.78-2.458 6.46-4.077 1.68-1.618 2.828-3.57 2.828-5.752 0-10.172-5.06-19.469-7.568-22.705-.594-.825-2.196-.33-2.217.686-.264 2.68-.98 5.727-3.249 6.971-1.405-2.955-2.827-6.276-4.128-8.914-2.322-4.057-4.964-10.38-9.48-11.39-.749-.141-1.073.493-1.452.952Zm-30.044 44.99a34.641 34.641 0 0 0 3.135 2.933c2.711 2.25 5.785 4.12 9.135 5.6l-9.212 9.752c.306-3.65-1.47-7.348-4.854-9.295-1.716-.987-3.62-1.367-5.466-1.257l7.262-7.733Zm63.375 1.523 5.81 6.21c-1.846-.11-3.75.27-5.466 1.257-3.384 1.947-5.16 5.645-4.855 9.295l-8.37-8.876c4.188-1.589 7.996-3.755 11.275-6.476.55-.456 1.087-.923 1.606-1.41Zm-48.2 8.153c4.485 1.609 9.376 2.57 14.525 2.819l-3.058 13.028c-1.564-3.319-4.956-5.638-8.868-5.638-1.99 0-3.841.614-5.39 1.638l2.791-11.847Zm-22.36.457c1.408-.097 2.845.23 4.166.991a7.266 7.266 0 0 1 2.675 9.98 7.318 7.318 0 0 1-10.014 2.667 7.267 7.267 0 0 1-2.676-9.981 7.344 7.344 0 0 1 5.848-3.657Zm75.605 0a7.301 7.301 0 0 1 6.537 3.657 7.268 7.268 0 0 1-2.676 9.981 7.318 7.318 0 0 1-10.015-2.667 7.266 7.266 0 0 1 2.676-9.98 7.362 7.362 0 0 1 3.478-.991Zm-21.137.343 2.599 11.048a9.74 9.74 0 0 0-5.39-1.639c-3.912 0-7.304 2.319-8.867 5.638l-3.058-12.952c5.173-.013 10.134-.738 14.716-2.095ZM50.8 113.371a7.309 7.309 0 0 1 7.34 7.315A7.308 7.308 0 0 1 50.8 128a7.308 7.308 0 0 1-7.339-7.314 7.309 7.309 0 0 1 7.34-7.315Zm26.718 0a7.309 7.309 0 0 1 7.34 7.315 7.308 7.308 0 0 1-7.34 7.314 7.308 7.308 0 0 1-7.338-7.314 7.309 7.309 0 0 1 7.338-7.315Z"/>
    <style>
        path { fill: #000; }
        @media (prefers-color-scheme: dark) {
            path { fill: #FFF; }
        }
    </style>
</svg>